<mxfile type="github" version="13.10.9" pages="3" etag="uytouf72k8vw4_rvC6CF" agent="5.0 (Windows NT 10.0; Win64; x64) AppleWebKit/537.36 (KHTML, like Gecko) Chrome/70.0.3538.102 Safari/537.36 Edge/18.18363" modified="2020-12-06T12:04:06.010Z" host="app.diagrams.net">
  <diagram id="74e2e168-ea6b-b213-b513-2b3c1d86103e" name="总流程">
    <mxGraphModel grid="1" shadow="0" math="0" background="#ffffff" pageHeight="850" pageWidth="1100" pageScale="1" page="1" fold="1" arrows="1" connect="1" tooltips="1" guides="1" gridSize="10" dy="1152" dx="1422">
      <root>
        <mxCell id="0" />
        <mxCell id="1" parent="0" />
        <mxCell id="77e6c97f196da883-1" value="疲劳驾驶预警系统总流程" parent="1" vertex="1" style="swimlane;html=1;childLayout=stackLayout;startSize=20;rounded=0;shadow=0;labelBackgroundColor=none;strokeWidth=1;fontFamily=Verdana;fontSize=12;align=left;">
          <mxGeometry as="geometry" height="790" width="660" y="20" x="70" />
        </mxCell>
        <mxCell id="77e6c97f196da883-2" value="" parent="77e6c97f196da883-1" vertex="1" style="swimlane;html=1;startSize=20;">
          <mxGeometry as="geometry" height="770" width="40" y="20" />
        </mxCell>
        <mxCell id="wbGANwPSu1z8eDDNQpr_-23" value="启动阶段" parent="77e6c97f196da883-2" vertex="1" style="whiteSpace=wrap;html=1;gradientDirection=west;fontFamily=Helvetica;horizontal=0;">
          <mxGeometry as="geometry" height="180" width="40" y="20" />
        </mxCell>
        <mxCell id="wbGANwPSu1z8eDDNQpr_-24" value="预警阶段" parent="77e6c97f196da883-2" vertex="1" style="whiteSpace=wrap;html=1;horizontal=0;">
          <mxGeometry as="geometry" height="200" width="40" y="470" />
        </mxCell>
        <mxCell id="wbGANwPSu1z8eDDNQpr_-26" value="检测阶段" parent="77e6c97f196da883-2" vertex="1" style="whiteSpace=wrap;html=1;horizontal=0;">
          <mxGeometry as="geometry" height="270" width="40" y="200" />
        </mxCell>
        <mxCell id="77e6c97f196da883-3" value="车辆驾驶员" parent="77e6c97f196da883-1" vertex="1" style="swimlane;html=1;startSize=20;">
          <mxGeometry as="geometry" height="770" width="160" y="20" x="40" />
        </mxCell>
        <mxCell id="wbGANwPSu1z8eDDNQpr_-37" parent="77e6c97f196da883-3" style="edgeStyle=orthogonalEdgeStyle;rounded=0;orthogonalLoop=1;jettySize=auto;html=1;exitX=0.5;exitY=1;exitDx=0;exitDy=0;entryX=0.5;entryY=0;entryDx=0;entryDy=0;fontFamily=Helvetica;fontSize=14;" edge="1" target="77e6c97f196da883-12" source="77e6c97f196da883-11">
          <mxGeometry as="geometry" relative="1" />
        </mxCell>
        <mxCell id="77e6c97f196da883-11" value="启动车辆" parent="77e6c97f196da883-3" vertex="1" style="rounded=1;whiteSpace=wrap;html=1;shadow=0;labelBackgroundColor=none;strokeWidth=1;fontFamily=Verdana;fontSize=12;align=center;imageHeight=24;">
          <mxGeometry as="geometry" height="40" width="100" y="40" x="30" />
        </mxCell>
        <mxCell id="77e6c97f196da883-12" value="启动设备" parent="77e6c97f196da883-3" vertex="1" style="rounded=1;whiteSpace=wrap;html=1;shadow=0;labelBackgroundColor=none;strokeWidth=1;fontFamily=Verdana;fontSize=12;align=center;imageHeight=24;">
          <mxGeometry as="geometry" height="40" width="100" y="110" x="30" />
        </mxCell>
        <mxCell id="wbGANwPSu1z8eDDNQpr_-46" value="声音预警" parent="77e6c97f196da883-3" vertex="1" style="rounded=1;whiteSpace=wrap;html=1;shadow=0;labelBackgroundColor=none;strokeWidth=1;fontFamily=Verdana;fontSize=12;align=center;imageHeight=24;">
          <mxGeometry as="geometry" height="40" width="100" y="504" x="30" />
        </mxCell>
        <mxCell id="wbGANwPSu1z8eDDNQpr_-54" value="语音对讲" parent="77e6c97f196da883-3" vertex="1" style="rounded=1;whiteSpace=wrap;html=1;shadow=0;labelBackgroundColor=none;strokeWidth=1;fontFamily=Verdana;fontSize=12;align=center;imageHeight=24;">
          <mxGeometry as="geometry" height="40" width="100" y="594" x="30" />
        </mxCell>
        <mxCell id="77e6c97f196da883-4" value="终端设备" parent="77e6c97f196da883-1" vertex="1" style="swimlane;html=1;startSize=20;">
          <mxGeometry as="geometry" height="770" width="160" y="20" x="200" />
        </mxCell>
        <mxCell id="wbGANwPSu1z8eDDNQpr_-35" parent="77e6c97f196da883-4" style="edgeStyle=orthogonalEdgeStyle;rounded=0;orthogonalLoop=1;jettySize=auto;html=1;entryX=0.5;entryY=0;entryDx=0;entryDy=0;fontFamily=Helvetica;fontSize=14;" edge="1" target="77e6c97f196da883-13" source="wbGANwPSu1z8eDDNQpr_-28">
          <mxGeometry as="geometry" relative="1" />
        </mxCell>
        <mxCell id="wbGANwPSu1z8eDDNQpr_-28" value="捕获图像" parent="77e6c97f196da883-4" vertex="1" style="rounded=1;whiteSpace=wrap;html=1;shadow=0;labelBackgroundColor=none;strokeWidth=1;fontFamily=Verdana;fontSize=12;align=center;">
          <mxGeometry as="geometry" height="40" width="100" y="110" x="30" />
        </mxCell>
        <mxCell id="wbGANwPSu1z8eDDNQpr_-43" value="是" parent="77e6c97f196da883-4" style="edgeStyle=orthogonalEdgeStyle;rounded=0;orthogonalLoop=1;jettySize=auto;html=1;entryX=0.5;entryY=0;entryDx=0;entryDy=0;fontFamily=Helvetica;fontSize=12;" edge="1" target="wbGANwPSu1z8eDDNQpr_-42" source="77e6c97f196da883-13">
          <mxGeometry as="geometry" relative="1" />
        </mxCell>
        <mxCell id="77e6c97f196da883-13" value="驾驶员在岗" parent="77e6c97f196da883-4" vertex="1" style="rhombus;whiteSpace=wrap;html=1;rounded=0;shadow=0;labelBackgroundColor=none;strokeWidth=1;fontFamily=Verdana;fontSize=12;align=center;">
          <mxGeometry as="geometry" height="40" width="80" y="225" x="40" />
        </mxCell>
        <mxCell id="wbGANwPSu1z8eDDNQpr_-45" value="成功" parent="77e6c97f196da883-4" style="edgeStyle=orthogonalEdgeStyle;rounded=0;orthogonalLoop=1;jettySize=auto;html=1;entryX=0.5;entryY=0;entryDx=0;entryDy=0;fontFamily=Helvetica;fontSize=12;" edge="1" target="wbGANwPSu1z8eDDNQpr_-44" source="wbGANwPSu1z8eDDNQpr_-42">
          <mxGeometry as="geometry" relative="1" />
        </mxCell>
        <mxCell id="wbGANwPSu1z8eDDNQpr_-42" value="身份认证" parent="77e6c97f196da883-4" vertex="1" style="rhombus;whiteSpace=wrap;html=1;rounded=0;shadow=0;labelBackgroundColor=none;strokeWidth=1;fontFamily=Verdana;fontSize=12;align=center;">
          <mxGeometry as="geometry" height="40" width="80" y="310" x="40" />
        </mxCell>
        <mxCell id="wbGANwPSu1z8eDDNQpr_-44" value="疲劳检测" parent="77e6c97f196da883-4" vertex="1" style="rhombus;whiteSpace=wrap;html=1;rounded=0;shadow=0;labelBackgroundColor=none;strokeWidth=1;fontFamily=Verdana;fontSize=12;align=center;">
          <mxGeometry as="geometry" height="40" width="80" y="400" x="40" />
        </mxCell>
        <mxCell id="wbGANwPSu1z8eDDNQpr_-53" value="连麦" parent="77e6c97f196da883-4" vertex="1" style="rounded=1;whiteSpace=wrap;html=1;shadow=0;labelBackgroundColor=none;strokeWidth=1;fontFamily=Verdana;fontSize=12;align=center;imageHeight=24;">
          <mxGeometry as="geometry" height="40" width="100" y="594" x="30" />
        </mxCell>
        <mxCell id="77e6c97f196da883-5" value="车队安全员" parent="77e6c97f196da883-1" vertex="1" style="swimlane;html=1;startSize=20;">
          <mxGeometry as="geometry" height="770" width="150" y="20" x="360" />
        </mxCell>
        <mxCell id="77e6c97f196da883-16" value="二级预警" parent="77e6c97f196da883-5" vertex="1" style="rhombus;whiteSpace=wrap;html=1;rounded=0;shadow=0;labelBackgroundColor=none;strokeWidth=1;fontFamily=Verdana;fontSize=12;align=center;">
          <mxGeometry as="geometry" height="40" width="80" y="504" x="40" />
        </mxCell>
        <mxCell id="77e6c97f196da883-17" value="人工干预" parent="77e6c97f196da883-5" vertex="1" style="rounded=1;whiteSpace=wrap;html=1;shadow=0;labelBackgroundColor=none;strokeWidth=1;fontFamily=Verdana;fontSize=12;align=center;imageHeight=24;">
          <mxGeometry as="geometry" height="40" width="100" y="594" x="30" />
        </mxCell>
        <mxCell id="77e6c97f196da883-35" value="是" parent="77e6c97f196da883-5" style="edgeStyle=orthogonalEdgeStyle;rounded=1;html=1;labelBackgroundColor=none;startArrow=none;startFill=0;startSize=5;endArrow=classicThin;endFill=1;endSize=5;jettySize=auto;orthogonalLoop=1;strokeWidth=1;fontFamily=Verdana;fontSize=12;" edge="1" target="77e6c97f196da883-17" source="77e6c97f196da883-16">
          <mxGeometry as="geometry" relative="1" />
        </mxCell>
        <mxCell id="wbGANwPSu1z8eDDNQpr_-36" parent="77e6c97f196da883-1" style="edgeStyle=orthogonalEdgeStyle;rounded=0;orthogonalLoop=1;jettySize=auto;html=1;entryX=0;entryY=0.5;entryDx=0;entryDy=0;fontFamily=Helvetica;fontSize=14;" edge="1" target="wbGANwPSu1z8eDDNQpr_-28" source="77e6c97f196da883-12">
          <mxGeometry as="geometry" relative="1" />
        </mxCell>
        <mxCell id="wbGANwPSu1z8eDDNQpr_-50" value="是" parent="77e6c97f196da883-1" style="edgeStyle=orthogonalEdgeStyle;rounded=0;orthogonalLoop=1;jettySize=auto;html=1;exitX=0;exitY=0.5;exitDx=0;exitDy=0;fontFamily=Helvetica;fontSize=12;" edge="1" target="wbGANwPSu1z8eDDNQpr_-46" source="wbGANwPSu1z8eDDNQpr_-44">
          <mxGeometry as="geometry" x="0.6667" relative="1">
            <mxPoint as="offset" />
          </mxGeometry>
        </mxCell>
        <mxCell id="wbGANwPSu1z8eDDNQpr_-55" parent="77e6c97f196da883-1" style="edgeStyle=orthogonalEdgeStyle;rounded=0;orthogonalLoop=1;jettySize=auto;html=1;exitX=0;exitY=0.5;exitDx=0;exitDy=0;entryX=1;entryY=0.5;entryDx=0;entryDy=0;fontFamily=Helvetica;fontSize=14;" edge="1" target="wbGANwPSu1z8eDDNQpr_-53" source="77e6c97f196da883-17">
          <mxGeometry as="geometry" relative="1" />
        </mxCell>
        <mxCell id="wbGANwPSu1z8eDDNQpr_-56" parent="77e6c97f196da883-1" style="edgeStyle=orthogonalEdgeStyle;rounded=0;orthogonalLoop=1;jettySize=auto;html=1;exitX=0;exitY=0.5;exitDx=0;exitDy=0;fontFamily=Helvetica;fontSize=14;" edge="1" target="wbGANwPSu1z8eDDNQpr_-54" source="wbGANwPSu1z8eDDNQpr_-53">
          <mxGeometry as="geometry" relative="1" />
        </mxCell>
        <mxCell id="wbGANwPSu1z8eDDNQpr_-62" value="" parent="77e6c97f196da883-1" vertex="1" style="swimlane;html=1;startSize=20;">
          <mxGeometry as="geometry" height="770" width="150" y="20" x="510" />
        </mxCell>
        <mxCell id="wbGANwPSu1z8eDDNQpr_-38" value="结束" parent="wbGANwPSu1z8eDDNQpr_-62" vertex="1" style="rounded=1;whiteSpace=wrap;html=1;shadow=0;labelBackgroundColor=none;strokeWidth=1;fontFamily=Verdana;fontSize=12;align=center;imageHeight=24;">
          <mxGeometry as="geometry" height="40" width="100" y="692" x="28" />
        </mxCell>
        <mxCell id="wbGANwPSu1z8eDDNQpr_-39" parent="77e6c97f196da883-1" style="edgeStyle=orthogonalEdgeStyle;rounded=0;orthogonalLoop=1;jettySize=auto;html=1;fontFamily=Helvetica;fontSize=12;exitX=1;exitY=0.5;exitDx=0;exitDy=0;" edge="1" target="wbGANwPSu1z8eDDNQpr_-38" source="77e6c97f196da883-13">
          <mxGeometry as="geometry" relative="1">
            <Array as="points">
              <mxPoint y="265" x="588" />
            </Array>
          </mxGeometry>
        </mxCell>
        <mxCell id="wbGANwPSu1z8eDDNQpr_-48" value="否" parent="wbGANwPSu1z8eDDNQpr_-39" vertex="1" style="edgeLabel;html=1;align=center;verticalAlign=middle;resizable=0;points=[];fontSize=12;fontFamily=Helvetica;" connectable="0">
          <mxGeometry as="geometry" y="1" x="-0.76" relative="1">
            <mxPoint as="offset" y="1" x="35" />
          </mxGeometry>
        </mxCell>
        <mxCell id="wbGANwPSu1z8eDDNQpr_-47" parent="77e6c97f196da883-1" style="edgeStyle=orthogonalEdgeStyle;rounded=0;orthogonalLoop=1;jettySize=auto;html=1;fontFamily=Helvetica;fontSize=14;entryX=0.5;entryY=0;entryDx=0;entryDy=0;exitX=1;exitY=0.5;exitDx=0;exitDy=0;" edge="1" target="wbGANwPSu1z8eDDNQpr_-38" source="wbGANwPSu1z8eDDNQpr_-42">
          <mxGeometry as="geometry" relative="1">
            <mxPoint as="targetPoint" y="260" x="320" />
            <mxPoint as="sourcePoint" y="360" x="240" />
            <Array as="points">
              <mxPoint y="350" x="588" />
            </Array>
          </mxGeometry>
        </mxCell>
        <mxCell id="wbGANwPSu1z8eDDNQpr_-49" value="失败" parent="wbGANwPSu1z8eDDNQpr_-47" vertex="1" style="edgeLabel;html=1;align=center;verticalAlign=middle;resizable=0;points=[];fontSize=12;fontFamily=Helvetica;" connectable="0">
          <mxGeometry as="geometry" y="1" x="-0.7321" relative="1">
            <mxPoint as="offset" y="1" x="35" />
          </mxGeometry>
        </mxCell>
        <mxCell id="eQCrwAaPilXUL2iwjlU8-1" parent="77e6c97f196da883-1" style="edgeStyle=orthogonalEdgeStyle;rounded=0;orthogonalLoop=1;jettySize=auto;html=1;exitX=1;exitY=0.5;exitDx=0;exitDy=0;entryX=0.5;entryY=0;entryDx=0;entryDy=0;" edge="1" target="wbGANwPSu1z8eDDNQpr_-38" source="wbGANwPSu1z8eDDNQpr_-44">
          <mxGeometry as="geometry" relative="1">
            <Array as="points">
              <mxPoint y="440" x="588" />
            </Array>
          </mxGeometry>
        </mxCell>
        <mxCell id="eQCrwAaPilXUL2iwjlU8-2" value="否" parent="eQCrwAaPilXUL2iwjlU8-1" vertex="1" style="edgeLabel;html=1;align=center;verticalAlign=middle;resizable=0;points=[];" connectable="0">
          <mxGeometry as="geometry" y="-1" x="-0.5852" relative="1">
            <mxPoint as="offset" y="-1" x="8.329999999999998" />
          </mxGeometry>
        </mxCell>
        <mxCell id="eQCrwAaPilXUL2iwjlU8-3" parent="77e6c97f196da883-1" style="edgeStyle=orthogonalEdgeStyle;rounded=0;orthogonalLoop=1;jettySize=auto;html=1;exitX=0.5;exitY=1;exitDx=0;exitDy=0;entryX=0;entryY=0.5;entryDx=0;entryDy=0;" edge="1" target="77e6c97f196da883-16" source="wbGANwPSu1z8eDDNQpr_-44">
          <mxGeometry as="geometry" relative="1" />
        </mxCell>
        <mxCell id="eQCrwAaPilXUL2iwjlU8-4" value="是" parent="eQCrwAaPilXUL2iwjlU8-3" vertex="1" style="edgeLabel;html=1;align=center;verticalAlign=middle;resizable=0;points=[];" connectable="0">
          <mxGeometry as="geometry" y="-1" x="-0.4641" relative="1">
            <mxPoint as="offset" y="-25" x="1" />
          </mxGeometry>
        </mxCell>
        <mxCell id="wWCLOLw7y-UacUTrP2MN-1" parent="77e6c97f196da883-1" style="edgeStyle=orthogonalEdgeStyle;rounded=0;orthogonalLoop=1;jettySize=auto;html=1;exitX=0;exitY=0.5;exitDx=0;exitDy=0;entryX=0;entryY=0.5;entryDx=0;entryDy=0;" edge="1" target="wbGANwPSu1z8eDDNQpr_-38" source="wbGANwPSu1z8eDDNQpr_-46">
          <mxGeometry as="geometry" relative="1" />
        </mxCell>
        <mxCell id="wWCLOLw7y-UacUTrP2MN-2" parent="77e6c97f196da883-1" style="edgeStyle=orthogonalEdgeStyle;rounded=0;orthogonalLoop=1;jettySize=auto;html=1;exitX=0.5;exitY=1;exitDx=0;exitDy=0;entryX=0;entryY=0.5;entryDx=0;entryDy=0;" edge="1" target="wbGANwPSu1z8eDDNQpr_-38" source="wbGANwPSu1z8eDDNQpr_-54">
          <mxGeometry as="geometry" relative="1" />
        </mxCell>
      </root>
    </mxGraphModel>
  </diagram>
  <diagram id="XJUFCFfbBO2qD3JIqSxK" name="检测流程">
    <mxGraphModel grid="1" shadow="0" math="0" background="#ffffff" pageHeight="850" pageWidth="1100" pageScale="1" page="1" fold="1" arrows="1" connect="1" tooltips="1" guides="1" gridSize="10" dy="1152" dx="1422">
      <root>
        <mxCell id="0Gp6EfXBMn16JaU_TRh4-0" />
        <mxCell id="0Gp6EfXBMn16JaU_TRh4-1" parent="0Gp6EfXBMn16JaU_TRh4-0" />
        <mxCell id="lZcPaMf5r0BU_X8ozDLW-0" value="疲劳驾驶检测流程" parent="0Gp6EfXBMn16JaU_TRh4-1" vertex="1" style="swimlane;html=1;childLayout=stackLayout;startSize=20;rounded=0;shadow=0;labelBackgroundColor=none;strokeWidth=1;fontFamily=Verdana;fontSize=12;align=left;">
          <mxGeometry as="geometry" height="790" width="660" y="20" x="70" />
        </mxCell>
        <mxCell id="lZcPaMf5r0BU_X8ozDLW-1" value="" parent="lZcPaMf5r0BU_X8ozDLW-0" vertex="1" style="swimlane;html=1;startSize=20;">
          <mxGeometry as="geometry" height="770" width="40" y="20" />
        </mxCell>
        <mxCell id="lZcPaMf5r0BU_X8ozDLW-2" value="车辆驾驶员" parent="lZcPaMf5r0BU_X8ozDLW-0" vertex="1" style="swimlane;html=1;startSize=20;">
          <mxGeometry as="geometry" height="770" width="160" y="20" x="40" />
        </mxCell>
        <mxCell id="lZcPaMf5r0BU_X8ozDLW-3" parent="lZcPaMf5r0BU_X8ozDLW-2" style="edgeStyle=orthogonalEdgeStyle;rounded=0;orthogonalLoop=1;jettySize=auto;html=1;exitX=0.5;exitY=1;exitDx=0;exitDy=0;entryX=0.5;entryY=0;entryDx=0;entryDy=0;fontFamily=Helvetica;fontSize=14;" edge="1" target="lZcPaMf5r0BU_X8ozDLW-5" source="lZcPaMf5r0BU_X8ozDLW-4">
          <mxGeometry as="geometry" relative="1" />
        </mxCell>
        <mxCell id="lZcPaMf5r0BU_X8ozDLW-4" value="启动车辆" parent="lZcPaMf5r0BU_X8ozDLW-2" vertex="1" style="rounded=1;whiteSpace=wrap;html=1;shadow=0;labelBackgroundColor=none;strokeWidth=1;fontFamily=Verdana;fontSize=12;align=center;imageHeight=24;">
          <mxGeometry as="geometry" height="40" width="100" y="40" x="30" />
        </mxCell>
        <mxCell id="lZcPaMf5r0BU_X8ozDLW-5" value="启动设备" parent="lZcPaMf5r0BU_X8ozDLW-2" vertex="1" style="rounded=1;whiteSpace=wrap;html=1;shadow=0;labelBackgroundColor=none;strokeWidth=1;fontFamily=Verdana;fontSize=12;align=center;imageHeight=24;">
          <mxGeometry as="geometry" height="40" width="100" y="110" x="30" />
        </mxCell>
        <mxCell id="lZcPaMf5r0BU_X8ozDLW-8" value="终端设备" parent="lZcPaMf5r0BU_X8ozDLW-0" vertex="1" style="swimlane;html=1;startSize=20;">
          <mxGeometry as="geometry" height="770" width="160" y="20" x="200" />
        </mxCell>
        <mxCell id="lZcPaMf5r0BU_X8ozDLW-9" parent="lZcPaMf5r0BU_X8ozDLW-8" style="edgeStyle=orthogonalEdgeStyle;rounded=0;orthogonalLoop=1;jettySize=auto;html=1;entryX=0.5;entryY=0;entryDx=0;entryDy=0;fontFamily=Helvetica;fontSize=14;" edge="1" target="lZcPaMf5r0BU_X8ozDLW-12" source="lZcPaMf5r0BU_X8ozDLW-10">
          <mxGeometry as="geometry" relative="1" />
        </mxCell>
        <mxCell id="lZcPaMf5r0BU_X8ozDLW-10" value="捕获图像" parent="lZcPaMf5r0BU_X8ozDLW-8" vertex="1" style="rounded=1;whiteSpace=wrap;html=1;shadow=0;labelBackgroundColor=none;strokeWidth=1;fontFamily=Verdana;fontSize=12;align=center;">
          <mxGeometry as="geometry" height="40" width="100" y="110" x="30" />
        </mxCell>
        <mxCell id="lZcPaMf5r0BU_X8ozDLW-11" value="是" parent="lZcPaMf5r0BU_X8ozDLW-8" style="edgeStyle=orthogonalEdgeStyle;rounded=0;orthogonalLoop=1;jettySize=auto;html=1;entryX=0.5;entryY=0;entryDx=0;entryDy=0;fontFamily=Helvetica;fontSize=12;" edge="1" target="lZcPaMf5r0BU_X8ozDLW-14" source="lZcPaMf5r0BU_X8ozDLW-12">
          <mxGeometry as="geometry" x="-0.0743" relative="1">
            <mxPoint as="offset" y="-1" />
          </mxGeometry>
        </mxCell>
        <mxCell id="lZcPaMf5r0BU_X8ozDLW-12" value="驾驶员在岗" parent="lZcPaMf5r0BU_X8ozDLW-8" vertex="1" style="rhombus;whiteSpace=wrap;html=1;rounded=0;shadow=0;labelBackgroundColor=none;strokeWidth=1;fontFamily=Verdana;fontSize=12;align=center;">
          <mxGeometry as="geometry" height="40" width="80" y="199" x="40" />
        </mxCell>
        <mxCell id="lZcPaMf5r0BU_X8ozDLW-50" parent="lZcPaMf5r0BU_X8ozDLW-8" style="edgeStyle=orthogonalEdgeStyle;rounded=0;orthogonalLoop=1;jettySize=auto;html=1;exitX=0.5;exitY=1;exitDx=0;exitDy=0;entryX=0.5;entryY=0;entryDx=0;entryDy=0;" edge="1" target="lZcPaMf5r0BU_X8ozDLW-15" source="lZcPaMf5r0BU_X8ozDLW-14">
          <mxGeometry as="geometry" relative="1">
            <mxPoint as="targetPoint" y="474" x="80" />
          </mxGeometry>
        </mxCell>
        <mxCell id="DspEClRjXSvs6DgXh6W2-1" value="成功" parent="lZcPaMf5r0BU_X8ozDLW-50" vertex="1" style="edgeLabel;html=1;align=center;verticalAlign=middle;resizable=0;points=[];" connectable="0">
          <mxGeometry as="geometry" y="-3" x="0.1884" relative="1">
            <mxPoint as="offset" y="-10.67" x="3" />
          </mxGeometry>
        </mxCell>
        <mxCell id="lZcPaMf5r0BU_X8ozDLW-14" value="身份认证" parent="lZcPaMf5r0BU_X8ozDLW-8" vertex="1" style="rhombus;whiteSpace=wrap;html=1;rounded=0;shadow=0;labelBackgroundColor=none;strokeWidth=1;fontFamily=Verdana;fontSize=12;align=center;">
          <mxGeometry as="geometry" height="40" width="80" y="414" x="40" />
        </mxCell>
        <mxCell id="lZcPaMf5r0BU_X8ozDLW-58" parent="lZcPaMf5r0BU_X8ozDLW-8" style="edgeStyle=orthogonalEdgeStyle;rounded=0;orthogonalLoop=1;jettySize=auto;html=1;exitX=0.5;exitY=1;exitDx=0;exitDy=0;entryX=0.5;entryY=0;entryDx=0;entryDy=0;" edge="1" target="lZcPaMf5r0BU_X8ozDLW-56" source="lZcPaMf5r0BU_X8ozDLW-15">
          <mxGeometry as="geometry" relative="1" />
        </mxCell>
        <mxCell id="lZcPaMf5r0BU_X8ozDLW-15" value="长时间驾驶" parent="lZcPaMf5r0BU_X8ozDLW-8" vertex="1" style="rhombus;whiteSpace=wrap;html=1;rounded=0;shadow=0;labelBackgroundColor=none;strokeWidth=1;fontFamily=Verdana;fontSize=12;align=center;">
          <mxGeometry as="geometry" height="40" width="80" y="500" x="40" />
        </mxCell>
        <mxCell id="lZcPaMf5r0BU_X8ozDLW-59" parent="lZcPaMf5r0BU_X8ozDLW-8" style="edgeStyle=orthogonalEdgeStyle;rounded=0;orthogonalLoop=1;jettySize=auto;html=1;exitX=0.5;exitY=1;exitDx=0;exitDy=0;entryX=0.5;entryY=0;entryDx=0;entryDy=0;" edge="1" target="lZcPaMf5r0BU_X8ozDLW-57" source="lZcPaMf5r0BU_X8ozDLW-56">
          <mxGeometry as="geometry" relative="1" />
        </mxCell>
        <mxCell id="lZcPaMf5r0BU_X8ozDLW-56" value="脸部疲劳" parent="lZcPaMf5r0BU_X8ozDLW-8" vertex="1" style="rhombus;whiteSpace=wrap;html=1;rounded=0;shadow=0;labelBackgroundColor=none;strokeWidth=1;fontFamily=Verdana;fontSize=12;align=center;">
          <mxGeometry as="geometry" height="40" width="80" y="560" x="40" />
        </mxCell>
        <mxCell id="lZcPaMf5r0BU_X8ozDLW-57" value="眼部疲劳" parent="lZcPaMf5r0BU_X8ozDLW-8" vertex="1" style="rhombus;whiteSpace=wrap;html=1;rounded=0;shadow=0;labelBackgroundColor=none;strokeWidth=1;fontFamily=Verdana;fontSize=12;align=center;">
          <mxGeometry as="geometry" height="40" width="80" y="620" x="40" />
        </mxCell>
        <mxCell id="lZcPaMf5r0BU_X8ozDLW-21" parent="lZcPaMf5r0BU_X8ozDLW-0" style="edgeStyle=orthogonalEdgeStyle;rounded=0;orthogonalLoop=1;jettySize=auto;html=1;entryX=0;entryY=0.5;entryDx=0;entryDy=0;fontFamily=Helvetica;fontSize=14;" edge="1" target="lZcPaMf5r0BU_X8ozDLW-10" source="lZcPaMf5r0BU_X8ozDLW-5">
          <mxGeometry as="geometry" relative="1" />
        </mxCell>
        <mxCell id="lZcPaMf5r0BU_X8ozDLW-17" value="车队安全员" parent="lZcPaMf5r0BU_X8ozDLW-0" vertex="1" style="swimlane;html=1;startSize=20;">
          <mxGeometry as="geometry" height="770" width="150" y="20" x="360" />
        </mxCell>
        <mxCell id="lZcPaMf5r0BU_X8ozDLW-42" parent="lZcPaMf5r0BU_X8ozDLW-17" style="edgeStyle=orthogonalEdgeStyle;rounded=0;orthogonalLoop=1;jettySize=auto;html=1;exitX=0.5;exitY=1;exitDx=0;exitDy=0;entryX=0.5;entryY=0;entryDx=0;entryDy=0;" edge="1" target="lZcPaMf5r0BU_X8ozDLW-41" source="lZcPaMf5r0BU_X8ozDLW-39">
          <mxGeometry as="geometry" relative="1" />
        </mxCell>
        <mxCell id="lZcPaMf5r0BU_X8ozDLW-43" value="合法" parent="lZcPaMf5r0BU_X8ozDLW-42" vertex="1" style="edgeLabel;html=1;align=center;verticalAlign=middle;resizable=0;points=[];" connectable="0">
          <mxGeometry as="geometry" x="-0.0869" relative="1">
            <mxPoint as="offset" />
          </mxGeometry>
        </mxCell>
        <mxCell id="lZcPaMf5r0BU_X8ozDLW-39" value="身份判断" parent="lZcPaMf5r0BU_X8ozDLW-17" vertex="1" style="rhombus;whiteSpace=wrap;html=1;rounded=0;shadow=0;labelBackgroundColor=none;strokeWidth=1;fontFamily=Verdana;fontSize=12;align=center;">
          <mxGeometry as="geometry" height="40" width="80" y="259" x="30" />
        </mxCell>
        <mxCell id="lZcPaMf5r0BU_X8ozDLW-46" parent="lZcPaMf5r0BU_X8ozDLW-17" style="edgeStyle=orthogonalEdgeStyle;rounded=0;orthogonalLoop=1;jettySize=auto;html=1;exitX=0.5;exitY=1;exitDx=0;exitDy=0;entryX=0.5;entryY=0;entryDx=0;entryDy=0;" edge="1" target="lZcPaMf5r0BU_X8ozDLW-44" source="lZcPaMf5r0BU_X8ozDLW-41">
          <mxGeometry as="geometry" relative="1">
            <Array as="points" />
          </mxGeometry>
        </mxCell>
        <mxCell id="lZcPaMf5r0BU_X8ozDLW-41" value="人脸特征提取" parent="lZcPaMf5r0BU_X8ozDLW-17" vertex="1" style="rounded=1;whiteSpace=wrap;html=1;shadow=0;labelBackgroundColor=none;strokeWidth=1;fontFamily=Verdana;fontSize=12;align=center;imageHeight=24;">
          <mxGeometry as="geometry" height="40" width="100" y="349" x="20" />
        </mxCell>
        <mxCell id="lZcPaMf5r0BU_X8ozDLW-44" value="人脸特征库" parent="lZcPaMf5r0BU_X8ozDLW-17" vertex="1" style="rounded=1;whiteSpace=wrap;html=1;shadow=0;labelBackgroundColor=none;strokeWidth=1;fontFamily=Verdana;fontSize=12;align=center;imageHeight=24;">
          <mxGeometry as="geometry" height="40" width="100" y="414" x="20" />
        </mxCell>
        <mxCell id="662xGAKqP4_wuJFk2Wkw-0" value="摄像头异常" parent="lZcPaMf5r0BU_X8ozDLW-17" vertex="1" style="rhombus;whiteSpace=wrap;html=1;rounded=0;shadow=0;labelBackgroundColor=none;strokeWidth=1;fontFamily=Verdana;fontSize=12;align=center;">
          <mxGeometry as="geometry" height="40" width="80" y="199" x="35" />
        </mxCell>
        <mxCell id="lZcPaMf5r0BU_X8ozDLW-28" value="" parent="lZcPaMf5r0BU_X8ozDLW-0" vertex="1" style="swimlane;html=1;startSize=20;">
          <mxGeometry as="geometry" height="770" width="150" y="20" x="510" />
        </mxCell>
        <mxCell id="lZcPaMf5r0BU_X8ozDLW-29" value="结束" parent="lZcPaMf5r0BU_X8ozDLW-28" vertex="1" style="rounded=1;whiteSpace=wrap;html=1;shadow=0;labelBackgroundColor=none;strokeWidth=1;fontFamily=Verdana;fontSize=12;align=center;imageHeight=24;">
          <mxGeometry as="geometry" height="40" width="100" y="692" x="28" />
        </mxCell>
        <mxCell id="lZcPaMf5r0BU_X8ozDLW-30" parent="lZcPaMf5r0BU_X8ozDLW-0" style="edgeStyle=orthogonalEdgeStyle;rounded=0;orthogonalLoop=1;jettySize=auto;html=1;fontFamily=Helvetica;fontSize=12;exitX=1;exitY=0.5;exitDx=0;exitDy=0;" edge="1" target="lZcPaMf5r0BU_X8ozDLW-29" source="662xGAKqP4_wuJFk2Wkw-0">
          <mxGeometry as="geometry" relative="1">
            <Array as="points">
              <mxPoint y="239" x="480" />
              <mxPoint y="239" x="588" />
            </Array>
          </mxGeometry>
        </mxCell>
        <mxCell id="lZcPaMf5r0BU_X8ozDLW-31" value="否" parent="lZcPaMf5r0BU_X8ozDLW-30" vertex="1" style="edgeLabel;html=1;align=center;verticalAlign=middle;resizable=0;points=[];fontSize=12;fontFamily=Helvetica;" connectable="0">
          <mxGeometry as="geometry" y="1" x="-0.76" relative="1">
            <mxPoint as="offset" y="1" x="129.67" />
          </mxGeometry>
        </mxCell>
        <mxCell id="lZcPaMf5r0BU_X8ozDLW-40" parent="lZcPaMf5r0BU_X8ozDLW-0" style="edgeStyle=orthogonalEdgeStyle;rounded=0;orthogonalLoop=1;jettySize=auto;html=1;exitX=1;exitY=0.5;exitDx=0;exitDy=0;entryX=0.5;entryY=0;entryDx=0;entryDy=0;" edge="1" target="lZcPaMf5r0BU_X8ozDLW-29" source="lZcPaMf5r0BU_X8ozDLW-39">
          <mxGeometry as="geometry" relative="1" />
        </mxCell>
        <mxCell id="lZcPaMf5r0BU_X8ozDLW-45" value="不合法" parent="lZcPaMf5r0BU_X8ozDLW-40" vertex="1" style="edgeLabel;html=1;align=center;verticalAlign=middle;resizable=0;points=[];" connectable="0">
          <mxGeometry as="geometry" y="3" x="-0.7402" relative="1">
            <mxPoint as="offset" />
          </mxGeometry>
        </mxCell>
        <mxCell id="lZcPaMf5r0BU_X8ozDLW-53" parent="lZcPaMf5r0BU_X8ozDLW-0" style="edgeStyle=orthogonalEdgeStyle;rounded=0;orthogonalLoop=1;jettySize=auto;html=1;exitX=1;exitY=0.5;exitDx=0;exitDy=0;" edge="1" target="lZcPaMf5r0BU_X8ozDLW-29" source="lZcPaMf5r0BU_X8ozDLW-15">
          <mxGeometry as="geometry" relative="1" />
        </mxCell>
        <mxCell id="lZcPaMf5r0BU_X8ozDLW-55" value="是" parent="lZcPaMf5r0BU_X8ozDLW-53" vertex="1" style="edgeLabel;html=1;align=center;verticalAlign=middle;resizable=0;points=[];" connectable="0">
          <mxGeometry as="geometry" y="2" x="-0.6934" relative="1">
            <mxPoint as="offset" y="2" x="43.33" />
          </mxGeometry>
        </mxCell>
        <mxCell id="lZcPaMf5r0BU_X8ozDLW-32" parent="lZcPaMf5r0BU_X8ozDLW-0" style="edgeStyle=orthogonalEdgeStyle;rounded=0;orthogonalLoop=1;jettySize=auto;html=1;fontFamily=Helvetica;fontSize=14;exitX=1;exitY=0.5;exitDx=0;exitDy=0;entryX=0;entryY=0.5;entryDx=0;entryDy=0;" edge="1" target="lZcPaMf5r0BU_X8ozDLW-39" source="lZcPaMf5r0BU_X8ozDLW-14">
          <mxGeometry as="geometry" relative="1">
            <mxPoint as="targetPoint" y="324" x="390" />
            <mxPoint as="sourcePoint" y="324" x="320" />
            <Array as="points">
              <mxPoint y="454" x="340" />
              <mxPoint y="299" x="340" />
            </Array>
          </mxGeometry>
        </mxCell>
        <mxCell id="lZcPaMf5r0BU_X8ozDLW-47" value="失败" parent="lZcPaMf5r0BU_X8ozDLW-32" vertex="1" style="edgeLabel;html=1;align=center;verticalAlign=middle;resizable=0;points=[];" connectable="0">
          <mxGeometry as="geometry" x="-0.278" relative="1">
            <mxPoint as="offset" y="-52.33" />
          </mxGeometry>
        </mxCell>
        <mxCell id="lZcPaMf5r0BU_X8ozDLW-60" parent="lZcPaMf5r0BU_X8ozDLW-0" style="edgeStyle=orthogonalEdgeStyle;rounded=0;orthogonalLoop=1;jettySize=auto;html=1;exitX=1;exitY=0.5;exitDx=0;exitDy=0;" edge="1" target="lZcPaMf5r0BU_X8ozDLW-29" source="lZcPaMf5r0BU_X8ozDLW-56">
          <mxGeometry as="geometry" relative="1" />
        </mxCell>
        <mxCell id="lZcPaMf5r0BU_X8ozDLW-61" value="是" parent="lZcPaMf5r0BU_X8ozDLW-60" vertex="1" style="edgeLabel;html=1;align=center;verticalAlign=middle;resizable=0;points=[];" connectable="0">
          <mxGeometry as="geometry" x="-0.3506" relative="1">
            <mxPoint as="offset" x="-13.33" />
          </mxGeometry>
        </mxCell>
        <mxCell id="lZcPaMf5r0BU_X8ozDLW-62" parent="lZcPaMf5r0BU_X8ozDLW-0" style="edgeStyle=orthogonalEdgeStyle;rounded=0;orthogonalLoop=1;jettySize=auto;html=1;exitX=1;exitY=0.5;exitDx=0;exitDy=0;entryX=0.5;entryY=0;entryDx=0;entryDy=0;" edge="1" target="lZcPaMf5r0BU_X8ozDLW-29" source="lZcPaMf5r0BU_X8ozDLW-57">
          <mxGeometry as="geometry" relative="1">
            <Array as="points">
              <mxPoint y="660" x="588" />
            </Array>
          </mxGeometry>
        </mxCell>
        <mxCell id="DspEClRjXSvs6DgXh6W2-2" value="是" parent="lZcPaMf5r0BU_X8ozDLW-62" vertex="1" style="edgeLabel;html=1;align=center;verticalAlign=middle;resizable=0;points=[];" connectable="0">
          <mxGeometry as="geometry" y="5" x="-0.3208" relative="1">
            <mxPoint as="offset" x="1.67" />
          </mxGeometry>
        </mxCell>
        <mxCell id="lZcPaMf5r0BU_X8ozDLW-63" parent="lZcPaMf5r0BU_X8ozDLW-0" style="edgeStyle=orthogonalEdgeStyle;rounded=0;orthogonalLoop=1;jettySize=auto;html=1;exitX=0.5;exitY=1;exitDx=0;exitDy=0;" edge="1" target="lZcPaMf5r0BU_X8ozDLW-29" source="lZcPaMf5r0BU_X8ozDLW-57">
          <mxGeometry as="geometry" relative="1">
            <Array as="points">
              <mxPoint y="692" x="280" />
              <mxPoint y="692" x="588" />
            </Array>
          </mxGeometry>
        </mxCell>
        <mxCell id="DspEClRjXSvs6DgXh6W2-3" value="否" parent="lZcPaMf5r0BU_X8ozDLW-63" vertex="1" style="edgeLabel;html=1;align=center;verticalAlign=middle;resizable=0;points=[];" connectable="0">
          <mxGeometry as="geometry" y="1" x="-0.5451" relative="1">
            <mxPoint as="offset" x="85.33" />
          </mxGeometry>
        </mxCell>
        <mxCell id="662xGAKqP4_wuJFk2Wkw-1" parent="lZcPaMf5r0BU_X8ozDLW-0" style="edgeStyle=orthogonalEdgeStyle;rounded=0;orthogonalLoop=1;jettySize=auto;html=1;exitX=1;exitY=0.5;exitDx=0;exitDy=0;entryX=0;entryY=0.5;entryDx=0;entryDy=0;" edge="1" target="662xGAKqP4_wuJFk2Wkw-0" source="lZcPaMf5r0BU_X8ozDLW-12">
          <mxGeometry as="geometry" relative="1" />
        </mxCell>
        <mxCell id="662xGAKqP4_wuJFk2Wkw-2" value="否" parent="662xGAKqP4_wuJFk2Wkw-1" vertex="1" style="edgeLabel;html=1;align=center;verticalAlign=middle;resizable=0;points=[];" connectable="0">
          <mxGeometry as="geometry" y="-1" x="-0.4578" relative="1">
            <mxPoint as="offset" y="-1" />
          </mxGeometry>
        </mxCell>
        <mxCell id="lZcPaMf5r0BU_X8ozDLW-48" parent="0Gp6EfXBMn16JaU_TRh4-1" style="edgeStyle=orthogonalEdgeStyle;rounded=0;orthogonalLoop=1;jettySize=auto;html=1;exitX=0;exitY=0.5;exitDx=0;exitDy=0;" edge="1" source="lZcPaMf5r0BU_X8ozDLW-44">
          <mxGeometry as="geometry" relative="1">
            <mxPoint as="targetPoint" y="474" x="390" />
          </mxGeometry>
        </mxCell>
        <mxCell id="lZcPaMf5r0BU_X8ozDLW-49" value="下发" parent="lZcPaMf5r0BU_X8ozDLW-48" vertex="1" style="edgeLabel;html=1;align=center;verticalAlign=middle;resizable=0;points=[];" connectable="0">
          <mxGeometry as="geometry" y="-2" x="-0.2629" relative="1">
            <mxPoint as="offset" />
          </mxGeometry>
        </mxCell>
      </root>
    </mxGraphModel>
  </diagram>
  <diagram id="WgdU8I2YCrtVdRQlBFpG" name="预警流程">
    <mxGraphModel grid="1" shadow="0" math="0" background="#ffffff" pageHeight="850" pageWidth="1100" pageScale="1" page="1" fold="1" arrows="1" connect="1" tooltips="1" guides="1" gridSize="10" dy="1152" dx="1422">
      <root>
        <mxCell id="mhGp9V5HuGdUFp_Mt4OQ-0" />
        <mxCell id="mhGp9V5HuGdUFp_Mt4OQ-1" parent="mhGp9V5HuGdUFp_Mt4OQ-0" />
        <mxCell id="mhGp9V5HuGdUFp_Mt4OQ-2" value="疲劳驾驶预警流程" parent="mhGp9V5HuGdUFp_Mt4OQ-1" vertex="1" style="swimlane;html=1;childLayout=stackLayout;startSize=20;rounded=0;shadow=0;labelBackgroundColor=none;strokeWidth=1;fontFamily=Verdana;fontSize=12;align=left;">
          <mxGeometry as="geometry" height="790" width="660" y="20" x="70" />
        </mxCell>
        <mxCell id="mhGp9V5HuGdUFp_Mt4OQ-3" value="" parent="mhGp9V5HuGdUFp_Mt4OQ-2" vertex="1" style="swimlane;html=1;startSize=20;">
          <mxGeometry as="geometry" height="770" width="40" y="20" />
        </mxCell>
        <mxCell id="mhGp9V5HuGdUFp_Mt4OQ-7" value="车辆驾驶员" parent="mhGp9V5HuGdUFp_Mt4OQ-2" vertex="1" style="swimlane;html=1;startSize=20;">
          <mxGeometry as="geometry" height="770" width="160" y="20" x="40" />
        </mxCell>
        <mxCell id="mhGp9V5HuGdUFp_Mt4OQ-8" parent="mhGp9V5HuGdUFp_Mt4OQ-7" style="edgeStyle=orthogonalEdgeStyle;rounded=0;orthogonalLoop=1;jettySize=auto;html=1;exitX=0.5;exitY=1;exitDx=0;exitDy=0;entryX=0.5;entryY=0;entryDx=0;entryDy=0;fontFamily=Helvetica;fontSize=14;" edge="1" target="mhGp9V5HuGdUFp_Mt4OQ-10" source="mhGp9V5HuGdUFp_Mt4OQ-9">
          <mxGeometry as="geometry" relative="1" />
        </mxCell>
        <mxCell id="mhGp9V5HuGdUFp_Mt4OQ-9" value="启动车辆" parent="mhGp9V5HuGdUFp_Mt4OQ-7" vertex="1" style="rounded=1;whiteSpace=wrap;html=1;shadow=0;labelBackgroundColor=none;strokeWidth=1;fontFamily=Verdana;fontSize=12;align=center;imageHeight=24;">
          <mxGeometry as="geometry" height="40" width="100" y="40" x="30" />
        </mxCell>
        <mxCell id="mhGp9V5HuGdUFp_Mt4OQ-10" value="启动设备" parent="mhGp9V5HuGdUFp_Mt4OQ-7" vertex="1" style="rounded=1;whiteSpace=wrap;html=1;shadow=0;labelBackgroundColor=none;strokeWidth=1;fontFamily=Verdana;fontSize=12;align=center;imageHeight=24;">
          <mxGeometry as="geometry" height="40" width="100" y="110" x="30" />
        </mxCell>
        <mxCell id="mhGp9V5HuGdUFp_Mt4OQ-11" value="声音预警" parent="mhGp9V5HuGdUFp_Mt4OQ-7" vertex="1" style="rounded=1;whiteSpace=wrap;html=1;shadow=0;labelBackgroundColor=none;strokeWidth=1;fontFamily=Verdana;fontSize=12;align=center;imageHeight=24;">
          <mxGeometry as="geometry" height="40" width="100" y="504" x="30" />
        </mxCell>
        <mxCell id="mhGp9V5HuGdUFp_Mt4OQ-12" value="语音对讲" parent="mhGp9V5HuGdUFp_Mt4OQ-7" vertex="1" style="rounded=1;whiteSpace=wrap;html=1;shadow=0;labelBackgroundColor=none;strokeWidth=1;fontFamily=Verdana;fontSize=12;align=center;imageHeight=24;">
          <mxGeometry as="geometry" height="40" width="100" y="594" x="30" />
        </mxCell>
        <mxCell id="mhGp9V5HuGdUFp_Mt4OQ-13" value="终端设备" parent="mhGp9V5HuGdUFp_Mt4OQ-2" vertex="1" style="swimlane;html=1;startSize=20;">
          <mxGeometry as="geometry" height="770" width="160" y="20" x="200" />
        </mxCell>
        <mxCell id="mhGp9V5HuGdUFp_Mt4OQ-14" parent="mhGp9V5HuGdUFp_Mt4OQ-13" style="edgeStyle=orthogonalEdgeStyle;rounded=0;orthogonalLoop=1;jettySize=auto;html=1;entryX=0.5;entryY=0;entryDx=0;entryDy=0;fontFamily=Helvetica;fontSize=14;" edge="1" target="mhGp9V5HuGdUFp_Mt4OQ-20" source="mhGp9V5HuGdUFp_Mt4OQ-15">
          <mxGeometry as="geometry" relative="1">
            <mxPoint as="targetPoint" y="225" x="80" />
            <Array as="points" />
          </mxGeometry>
        </mxCell>
        <mxCell id="mhGp9V5HuGdUFp_Mt4OQ-15" value="捕获图像" parent="mhGp9V5HuGdUFp_Mt4OQ-13" vertex="1" style="rounded=1;whiteSpace=wrap;html=1;shadow=0;labelBackgroundColor=none;strokeWidth=1;fontFamily=Verdana;fontSize=12;align=center;">
          <mxGeometry as="geometry" height="40" width="100" y="110" x="30" />
        </mxCell>
        <mxCell id="mhGp9V5HuGdUFp_Mt4OQ-20" value="疲劳检测" parent="mhGp9V5HuGdUFp_Mt4OQ-13" vertex="1" style="rhombus;whiteSpace=wrap;html=1;rounded=0;shadow=0;labelBackgroundColor=none;strokeWidth=1;fontFamily=Verdana;fontSize=12;align=center;">
          <mxGeometry as="geometry" height="40" width="80" y="230" x="40" />
        </mxCell>
        <mxCell id="mhGp9V5HuGdUFp_Mt4OQ-21" value="连麦" parent="mhGp9V5HuGdUFp_Mt4OQ-13" vertex="1" style="rounded=1;whiteSpace=wrap;html=1;shadow=0;labelBackgroundColor=none;strokeWidth=1;fontFamily=Verdana;fontSize=12;align=center;imageHeight=24;">
          <mxGeometry as="geometry" height="40" width="100" y="594" x="30" />
        </mxCell>
        <mxCell id="mhGp9V5HuGdUFp_Mt4OQ-26" parent="mhGp9V5HuGdUFp_Mt4OQ-2" style="edgeStyle=orthogonalEdgeStyle;rounded=0;orthogonalLoop=1;jettySize=auto;html=1;entryX=0;entryY=0.5;entryDx=0;entryDy=0;fontFamily=Helvetica;fontSize=14;" edge="1" target="mhGp9V5HuGdUFp_Mt4OQ-15" source="mhGp9V5HuGdUFp_Mt4OQ-10">
          <mxGeometry as="geometry" relative="1" />
        </mxCell>
        <mxCell id="mhGp9V5HuGdUFp_Mt4OQ-27" value="是" parent="mhGp9V5HuGdUFp_Mt4OQ-2" style="edgeStyle=orthogonalEdgeStyle;rounded=0;orthogonalLoop=1;jettySize=auto;html=1;exitX=0;exitY=0.5;exitDx=0;exitDy=0;fontFamily=Helvetica;fontSize=12;" edge="1" target="mhGp9V5HuGdUFp_Mt4OQ-11" source="mhGp9V5HuGdUFp_Mt4OQ-20">
          <mxGeometry as="geometry" relative="1" />
        </mxCell>
        <mxCell id="mhGp9V5HuGdUFp_Mt4OQ-28" parent="mhGp9V5HuGdUFp_Mt4OQ-2" style="edgeStyle=orthogonalEdgeStyle;rounded=0;orthogonalLoop=1;jettySize=auto;html=1;exitX=0;exitY=0.5;exitDx=0;exitDy=0;entryX=1;entryY=0.5;entryDx=0;entryDy=0;fontFamily=Helvetica;fontSize=14;" edge="1" target="mhGp9V5HuGdUFp_Mt4OQ-21" source="mhGp9V5HuGdUFp_Mt4OQ-24">
          <mxGeometry as="geometry" relative="1" />
        </mxCell>
        <mxCell id="mhGp9V5HuGdUFp_Mt4OQ-29" parent="mhGp9V5HuGdUFp_Mt4OQ-2" style="edgeStyle=orthogonalEdgeStyle;rounded=0;orthogonalLoop=1;jettySize=auto;html=1;exitX=0;exitY=0.5;exitDx=0;exitDy=0;fontFamily=Helvetica;fontSize=14;" edge="1" target="mhGp9V5HuGdUFp_Mt4OQ-12" source="mhGp9V5HuGdUFp_Mt4OQ-21">
          <mxGeometry as="geometry" relative="1" />
        </mxCell>
        <mxCell id="mhGp9V5HuGdUFp_Mt4OQ-22" value="车队安全员" parent="mhGp9V5HuGdUFp_Mt4OQ-2" vertex="1" style="swimlane;html=1;startSize=20;">
          <mxGeometry as="geometry" height="770" width="150" y="20" x="360" />
        </mxCell>
        <mxCell id="t4V7ssKikqofHnxHg88k-7" value="是" parent="mhGp9V5HuGdUFp_Mt4OQ-22" style="edgeStyle=orthogonalEdgeStyle;rounded=0;orthogonalLoop=1;jettySize=auto;html=1;exitX=0.5;exitY=1;exitDx=0;exitDy=0;" edge="1" target="t4V7ssKikqofHnxHg88k-4" source="mhGp9V5HuGdUFp_Mt4OQ-23">
          <mxGeometry as="geometry" relative="1" />
        </mxCell>
        <mxCell id="mhGp9V5HuGdUFp_Mt4OQ-23" value="二级预警" parent="mhGp9V5HuGdUFp_Mt4OQ-22" vertex="1" style="rhombus;whiteSpace=wrap;html=1;rounded=0;shadow=0;labelBackgroundColor=none;strokeWidth=1;fontFamily=Verdana;fontSize=12;align=center;">
          <mxGeometry as="geometry" height="40" width="80" y="230" x="40" />
        </mxCell>
        <mxCell id="mhGp9V5HuGdUFp_Mt4OQ-24" value="人工干预" parent="mhGp9V5HuGdUFp_Mt4OQ-22" vertex="1" style="rounded=1;whiteSpace=wrap;html=1;shadow=0;labelBackgroundColor=none;strokeWidth=1;fontFamily=Verdana;fontSize=12;align=center;imageHeight=24;">
          <mxGeometry as="geometry" height="40" width="100" y="594" x="30" />
        </mxCell>
        <mxCell id="t4V7ssKikqofHnxHg88k-14" parent="mhGp9V5HuGdUFp_Mt4OQ-22" style="edgeStyle=orthogonalEdgeStyle;rounded=0;orthogonalLoop=1;jettySize=auto;html=1;exitX=0.5;exitY=1;exitDx=0;exitDy=0;" edge="1" target="mhGp9V5HuGdUFp_Mt4OQ-24" source="t4V7ssKikqofHnxHg88k-4">
          <mxGeometry as="geometry" relative="1" />
        </mxCell>
        <mxCell id="t4V7ssKikqofHnxHg88k-4" value="风险报表" parent="mhGp9V5HuGdUFp_Mt4OQ-22" vertex="1" style="rhombus;whiteSpace=wrap;html=1;rounded=0;shadow=0;labelBackgroundColor=none;strokeWidth=1;fontFamily=Verdana;fontSize=12;align=center;">
          <mxGeometry as="geometry" height="40" width="80" y="325" x="40" />
        </mxCell>
        <mxCell id="mhGp9V5HuGdUFp_Mt4OQ-38" parent="mhGp9V5HuGdUFp_Mt4OQ-2" style="edgeStyle=orthogonalEdgeStyle;rounded=0;orthogonalLoop=1;jettySize=auto;html=1;exitX=1;exitY=0.5;exitDx=0;exitDy=0;entryX=0;entryY=0.5;entryDx=0;entryDy=0;" edge="1" target="mhGp9V5HuGdUFp_Mt4OQ-23" source="mhGp9V5HuGdUFp_Mt4OQ-20">
          <mxGeometry as="geometry" relative="1">
            <Array as="points">
              <mxPoint y="270" x="360" />
              <mxPoint y="270" x="360" />
            </Array>
          </mxGeometry>
        </mxCell>
        <mxCell id="mhGp9V5HuGdUFp_Mt4OQ-39" value="是" parent="mhGp9V5HuGdUFp_Mt4OQ-38" vertex="1" style="edgeLabel;html=1;align=center;verticalAlign=middle;resizable=0;points=[];" connectable="0">
          <mxGeometry as="geometry" y="-1" x="-0.4641" relative="1">
            <mxPoint as="offset" />
          </mxGeometry>
        </mxCell>
        <mxCell id="t4V7ssKikqofHnxHg88k-9" parent="mhGp9V5HuGdUFp_Mt4OQ-2" style="edgeStyle=orthogonalEdgeStyle;rounded=0;orthogonalLoop=1;jettySize=auto;html=1;exitX=1;exitY=0.5;exitDx=0;exitDy=0;entryX=0.5;entryY=0;entryDx=0;entryDy=0;" edge="1" target="mhGp9V5HuGdUFp_Mt4OQ-31" source="mhGp9V5HuGdUFp_Mt4OQ-23">
          <mxGeometry as="geometry" relative="1">
            <Array as="points">
              <mxPoint y="270" x="620" />
              <mxPoint y="630" x="620" />
              <mxPoint y="630" x="588" />
            </Array>
          </mxGeometry>
        </mxCell>
        <mxCell id="t4V7ssKikqofHnxHg88k-6" parent="mhGp9V5HuGdUFp_Mt4OQ-2" style="edgeStyle=orthogonalEdgeStyle;rounded=0;orthogonalLoop=1;jettySize=auto;html=1;exitX=0.5;exitY=1;exitDx=0;exitDy=0;" edge="1" target="mhGp9V5HuGdUFp_Mt4OQ-24" source="t4V7ssKikqofHnxHg88k-5">
          <mxGeometry as="geometry" relative="1" />
        </mxCell>
        <mxCell id="t4V7ssKikqofHnxHg88k-18" value="是" parent="t4V7ssKikqofHnxHg88k-6" vertex="1" style="edgeLabel;html=1;align=center;verticalAlign=middle;resizable=0;points=[];" connectable="0">
          <mxGeometry as="geometry" x="0.5655" relative="1">
            <mxPoint as="offset" />
          </mxGeometry>
        </mxCell>
        <mxCell id="t4V7ssKikqofHnxHg88k-13" parent="mhGp9V5HuGdUFp_Mt4OQ-2" style="edgeStyle=orthogonalEdgeStyle;rounded=0;orthogonalLoop=1;jettySize=auto;html=1;exitX=1;exitY=0.5;exitDx=0;exitDy=0;entryX=0;entryY=0.5;entryDx=0;entryDy=0;" edge="1" target="t4V7ssKikqofHnxHg88k-5" source="t4V7ssKikqofHnxHg88k-4">
          <mxGeometry as="geometry" relative="1" />
        </mxCell>
        <mxCell id="t4V7ssKikqofHnxHg88k-19" value="否" parent="t4V7ssKikqofHnxHg88k-13" vertex="1" style="edgeLabel;html=1;align=center;verticalAlign=middle;resizable=0;points=[];" connectable="0">
          <mxGeometry as="geometry" y="1" x="-0.2" relative="1">
            <mxPoint as="offset" />
          </mxGeometry>
        </mxCell>
        <mxCell id="mhGp9V5HuGdUFp_Mt4OQ-30" value="" parent="mhGp9V5HuGdUFp_Mt4OQ-2" vertex="1" style="swimlane;html=1;startSize=20;">
          <mxGeometry as="geometry" height="770" width="150" y="20" x="510" />
        </mxCell>
        <mxCell id="mhGp9V5HuGdUFp_Mt4OQ-31" value="结束" parent="mhGp9V5HuGdUFp_Mt4OQ-30" vertex="1" style="rounded=1;whiteSpace=wrap;html=1;shadow=0;labelBackgroundColor=none;strokeWidth=1;fontFamily=Verdana;fontSize=12;align=center;imageHeight=24;">
          <mxGeometry as="geometry" height="40" width="100" y="692" x="28" />
        </mxCell>
        <mxCell id="t4V7ssKikqofHnxHg88k-15" parent="mhGp9V5HuGdUFp_Mt4OQ-30" style="edgeStyle=orthogonalEdgeStyle;rounded=0;orthogonalLoop=1;jettySize=auto;html=1;exitX=1;exitY=0.5;exitDx=0;exitDy=0;entryX=0.5;entryY=0;entryDx=0;entryDy=0;" edge="1" target="mhGp9V5HuGdUFp_Mt4OQ-31" source="t4V7ssKikqofHnxHg88k-5">
          <mxGeometry as="geometry" relative="1">
            <Array as="points">
              <mxPoint y="345" x="110" />
              <mxPoint y="610" x="110" />
              <mxPoint y="610" x="78" />
            </Array>
          </mxGeometry>
        </mxCell>
        <mxCell id="t4V7ssKikqofHnxHg88k-16" value="否" parent="t4V7ssKikqofHnxHg88k-15" vertex="1" style="edgeLabel;html=1;align=center;verticalAlign=middle;resizable=0;points=[];" connectable="0">
          <mxGeometry as="geometry" y="2" x="-0.6195" relative="1">
            <mxPoint as="offset" y="111" />
          </mxGeometry>
        </mxCell>
        <mxCell id="t4V7ssKikqofHnxHg88k-5" value="风险地图" parent="mhGp9V5HuGdUFp_Mt4OQ-30" vertex="1" style="rhombus;whiteSpace=wrap;html=1;rounded=0;shadow=0;labelBackgroundColor=none;strokeWidth=1;fontFamily=Verdana;fontSize=12;align=center;">
          <mxGeometry as="geometry" height="40" width="80" y="325" x="20" />
        </mxCell>
        <mxCell id="NZKGXyndzqJVoSE0N4sT-0" parent="mhGp9V5HuGdUFp_Mt4OQ-2" style="edgeStyle=orthogonalEdgeStyle;rounded=0;orthogonalLoop=1;jettySize=auto;html=1;exitX=0;exitY=0.5;exitDx=0;exitDy=0;entryX=0;entryY=0.5;entryDx=0;entryDy=0;" edge="1" target="mhGp9V5HuGdUFp_Mt4OQ-31" source="mhGp9V5HuGdUFp_Mt4OQ-11">
          <mxGeometry as="geometry" relative="1" />
        </mxCell>
        <mxCell id="NZKGXyndzqJVoSE0N4sT-1" parent="mhGp9V5HuGdUFp_Mt4OQ-2" style="edgeStyle=orthogonalEdgeStyle;rounded=0;orthogonalLoop=1;jettySize=auto;html=1;exitX=0.5;exitY=1;exitDx=0;exitDy=0;entryX=0;entryY=0.5;entryDx=0;entryDy=0;" edge="1" target="mhGp9V5HuGdUFp_Mt4OQ-31" source="mhGp9V5HuGdUFp_Mt4OQ-12">
          <mxGeometry as="geometry" relative="1" />
        </mxCell>
      </root>
    </mxGraphModel>
  </diagram>
</mxfile>
